#!OML:ASF H:\BabyWalks\Project 1\Capture day 1\Session 1\baby.ASF
:FULLY-SPECIFIED
:DEGREES
617
root 25.6395 17.7523 -1.62979 516.916 100.794 513.015
lowerback 20.6321 2.66 -2.88677
upperback 7.97798 3.3326 -1.83921
thorax -2.9023 1.84032 -1.08402
lowerneck -1.38375 6.13909 10.5726
upperneck 2.25743 8.16359 -7.87302
head 1.65167 4.06616 -3.85958
rclavicle -4.05521e-014 -4.77083e-015
rhumerus -38.9328 7.81686 -83.4344
rradius 56.2368
rwrist 0.704357
rhand -8.34912 -16.108
rfingers 7.12502
rthumb 17.5729 -45.3338
lclavicle -4.05521e-014 -4.77083e-015
lhumerus -32.4326 -5.97587 74.3449
lradius 54.74
lwrist 4.49922
lhand -1.67349 12.2631
lfingers 7.12502
lthumb 23.9865 40.7845
rfemur -17.8309 -3.60511 16.498
rtibia 56.6611
rfoot -9.93555 -0.353778
rtoes -16.4616
lfemur -18.2699 0.367721 -15.4712
ltibia 32.8893
lfoot -18.237 4.48425
ltoes -2.82563
618
root 25.6767 17.7555 -1.62148 516.244 100.696 512.41
lowerback 20.6664 2.62352 -2.89734
upperback 7.99677 3.28632 -1.79651
thorax -2.90238 1.81747 -1.02328
lowerneck -1.39059 6.10419 10.562
upperneck 2.27683 8.11746 -7.87806
head 1.65405 4.04299 -3.86089
rclavicle -1.11319e-014 8.74653e-015
rhumerus -38.8691 7.81509 -83.5296
rradius 56.7689
rwrist 0.642956
rhand -8.58303 -16.1238
rfingers 7.12502
rthumb 17.3478 -45.3696
lclavicle -1.11319e-014 8.74653e-015
lhumerus -32.2658 -5.79598 74.1987
lradius 54.9792
lwrist 4.61458
lhand -2.1618 12.2415
lfingers 7.12502
lthumb 23.5182 40.8238
rfemur -18.7009 -3.85042 16.8881
rtibia 56.1537
rfoot -10.4903 -0.674287
rtoes -16.0711
lfemur -18.0146 0.227469 -15.4038
ltibia 32.7973
lfoot -18.329 4.52729
ltoes -2.8889
619
root 25.7144 17.7579 -1.61219 515.677 100.587 511.913
lowerback 20.709 2.59163 -2.92686
upperback 8.01059 3.24147 -1.76124
thorax -2.91237 1.79518 -0.960671
lowerneck -1.38617 6.06471 10.5608
upperneck 2.28902 8.06584 -7.88484
head 1.65241 4.01733 -3.86491
rclavicle 1.59028e-015 -2.3059e-014
rhumerus -38.8193 7.82195 -83.6252
rradius 57.286
rwrist 0.611604
rhand -8.81108 -16.1234
rfingers 7.12502
rthumb 17.1283 -45.3884
lclavicle 1.59028e-015 -2.3059e-014
lhumerus -32.1165 -5.6218 74.0606
lradius 55.2239
lwrist 4.727
lhand -2.66454 12.2241
lfingers 7.12502
lthumb 23.0359 40.8674
rfemur -19.5185 -4.04519 17.2557
rtibia 55.4757
rfoot -11.009 -0.978896
rtoes -15.6811
lfemur -17.7534 0.0903244 -15.3614
ltibia 32.706
lfoot -18.4278 4.56529
ltoes -2.94567
620
root 25.7529 17.7596 -1.60188 515.194 100.466 511.503
lowerback 20.7555 2.56197 -2.97311
upperback 8.01988 3.1956 -1.73172
thorax -2.92947 1.77222 -0.89482
lowerneck -1.37659 6.02369 10.5624
upperneck 2.3008 8.01244 -7.88671
head 1.64954 3.99098 -3.86812
rclavicle 2.38542e-015 -2.06736e-014
rhumerus -38.7835 7.84253 -83.7229
rradius 57.7845
rwrist 0.611025
rhand -9.02566 -16.1047
rfingers 7.12502
rthumb 16.9217 -45.3875
lclavicle 2.38542e-015 -2.06736e-014
lhumerus -31.9885 -5.45478 73.931
lradius 55.4743
lwrist 4.83927
lhand -3.17917 12.2131
lfingers 7.12502
lthumb 22.542 40.9172
rfemur -20.282 -4.1949 17.6008
rtibia 54.6318
rfoot -11.4906 -1.27185
rtoes -15.3351
lfemur -17.4874 -0.0450973 -15.3401
ltibia 32.6134
lfoot -18.533 4.59841
ltoes -2.99998
621
root 25.7923 17.7607 -1.59068 514.767 100.329 511.15
lowerback 20.8053 2.53229 -3.02545
upperback 8.02632 3.14803 -1.70782
thorax -2.95108 1.74847 -0.831315
lowerneck -1.36763 5.98117 10.5644
upperneck 2.3135 7.95689 -7.8855
head 1.64673 3.9636 -3.87052
rclavicle -4.92986e-014 -7.95139e-016
rhumerus -38.7595 7.88462 -83.8228
rradius 58.2606
rwrist 0.615515
rhand -9.24327 -16.0705
rfingers 7.12502
rthumb 16.7123 -45.3712
lclavicle -4.92986e-014 -7.95139e-016
lhumerus -31.8829 -5.30706 73.8125
lradius 55.7347
lwrist 4.95927
lhand -3.70317 12.2037
lfingers 7.12502
lthumb 22.039 40.9679
rfemur -20.986 -4.30419 17.9209
rtibia 53.6261
rfoot -11.9287 -1.55127
rtoes -15.0153
lfemur -17.2146 -0.183603 -15.3367
ltibia 32.5157
lfoot -18.6417 4.62566
ltoes -3.04352
622
root 25.8328 17.7613 -1.57858 514.382 100.179 510.836
lowerback 20.8523 2.50277 -3.07985
upperback 8.02969 3.09993 -1.68852
thorax -2.97425 1.72449 -0.771316
lowerneck -1.36519 5.93773 10.561
upperneck 2.32967 7.8994 -7.8742
head 1.64519 3.93524 -3.86881
rclavicle -1.19271e-014 -3.4191e-014
rhumerus -38.7455 7.94754 -83.9225
rradius 58.7125
rwrist 0.627413
rhand -9.44544 -16.0252
rfingers 7.12502
rthumb 16.5176 -45.3421
lclavicle -1.19271e-014 -3.4191e-014
lhumerus -31.7974 -5.18533 73.7084
lradius 56.0008
lwrist 5.10733
lhand -4.25027 12.187
lfingers 7.12502
lthumb 21.5136 41.0123
rfemur -21.634 -4.37211 18.2164
rtibia 52.4632
rfoot -12.3223 -1.82188
rtoes -14.7481
lfemur -16.9393 -0.325637 -15.347
ltibia 32.4096
lfoot -18.7515 4.64864
ltoes -3.0855
623
root 25.8745 17.7619 -1.56557 514.033 100.009 510.553
lowerback 20.8925 2.47131 -3.13654
upperback 8.03129 3.04882 -1.67394
thorax -2.99554 1.69908 -0.713997
lowerneck -1.36678 5.89267 10.5495
upperneck 2.34573 7.83914 -7.85154
head 1.64325 3.9055 -3.8624
rclavicle 7.95139e-016 -7.15625e-015
rhumerus -38.7406 8.03148 -84.0231
rradius 59.138
rwrist 0.636512
rhand -9.63359 -15.9731
rfingers 7.12502
rthumb 16.3365 -45.305
lclavicle 7.95139e-016 -7.15625e-015
lhumerus -31.7323 -5.09102 73.6168
lradius 56.2742
lwrist 5.27535
lhand -4.79669 12.1609
lfingers 7.12502
lthumb 20.9887 41.0452
rfemur -22.2226 -4.40375 18.4807
rtibia 51.1477
rfoot -12.6683 -2.0879
rtoes -14.5558
lfemur -16.6612 -0.476986 -15.3735
ltibia 32.2905
lfoot -18.8587 4.66702
ltoes -3.13952
624
root 25.9176 17.7627 -1.55169 513.717 99.8178 510.298
lowerback 20.9188 2.4371 -3.19739
upperback 8.03382 2.9939 -1.66299
thorax -3.00859 1.67176 -0.656528
lowerneck -1.37591 5.84945 10.5309
upperneck 2.36181 7.78052 -7.82142
head 1.64213 3.87647 -3.85229
rclavicle 4.77083e-015 -7.15625e-015
rhumerus -38.7404 8.14303 -84.124
rradius 59.5378
rwrist 0.635102
rhand -9.80854 -15.9235
rfingers 7.12502
rthumb 16.168 -45.2692
lclavicle 4.77083e-015 -7.15625e-015
lhumerus -31.6869 -5.02026 73.5368
lradius 56.557
lwrist 5.45937
lhand -5.32986 12.1262
lfingers 7.12502
lthumb 20.4765 41.0664
rfemur -22.7506 -4.39752 18.7097
rtibia 49.6853
rfoot -12.9718 -2.34477
rtoes -14.39
lfemur -16.3794 -0.637059 -15.4154
ltibia 32.1549
lfoot -18.9632 4.67919
ltoes -3.19432
625
root 25.9619 17.7637 -1.53684 513.417 99.6073 510.051
lowerback 20.9326 2.40094 -3.2591
upperback 8.03622 2.93671 -1.65414
thorax -3.01511 1.64329 -0.599651
lowerneck -1.39182 5.80652 10.5011
upperneck 2.37776 7.72149 -7.77947
head 1.64117 3.84716 -3.83665
rclavicle -1.19271e-014 1.82882e-014
rhumerus -38.7493 8.27612 -84.2231
rradius 59.9149
rwrist 0.626594
rhand -9.95555 -15.882
rfingers 7.12502
rthumb 16.0265 -45.2391
lclavicle -1.19271e-014 1.82882e-014
lhumerus -31.6588 -4.97535 73.4694
lradius 56.845
lwrist 5.65287
lhand -5.83359 12.0864
lfingers 7.12502
lthumb 19.9923 41.0779
rfemur -23.2168 -4.34781 18.9045
rtibia 48.0827
rfoot -13.2353 -2.59888
rtoes -14.2775
lfemur -16.094 -0.806709 -15.4685
ltibia 31.9984
lfoot -19.0606 4.68586
ltoes -3.25493
